<svg width="156" height="189" viewBox="0 0 156 189" fill="none" xmlns="http://www.w3.org/2000/svg">
<path d="M22.894 127.134H30.551L20.507 105.434H12.013L2 127.134H9.657L11.021 123.786H21.499L22.894 127.134ZM13.067 118.764L16.26 110.921L19.484 118.764H13.067Z" fill="#353738"/>
<path d="M48.5661 105.434V117.462C48.5661 121.895 46.7681 122.639 43.8541 122.639C40.9091 122.639 39.1421 121.895 39.1421 117.462V105.434H31.7951V118.051C31.7951 126.452 37.6851 127.599 43.8541 127.599C50.0231 127.599 55.9131 126.452 55.9131 118.051V105.434H48.5661Z" fill="#353738"/>
<path d="M82.1679 105.434H58.3909V110.456H66.6059V127.134H73.9529V110.456H82.1679V105.434Z" fill="#353738"/>
<path d="M97.1991 105C90.1621 105 83.0941 108.007 83.0941 116.284C83.0941 124.592 90.1621 127.599 97.1991 127.599C104.236 127.599 111.335 124.592 111.335 116.284C111.335 108.007 104.236 105 97.1991 105ZM97.1991 122.639C92.9521 122.639 90.5341 120.252 90.5341 116.284C90.5341 112.347 92.9521 109.96 97.1991 109.96C101.477 109.96 103.864 112.347 103.864 116.284C103.864 120.252 101.477 122.639 97.1991 122.639Z" fill="#353738"/>
<path d="M23.421 152.742H9.347V136.033H2V157.733H23.421V152.742Z" fill="#353738"/>
<path d="M45.26 157.733H52.917L42.873 136.033H34.379L24.366 157.733H32.023L33.387 154.385H43.865L45.26 157.733ZM35.433 149.363L38.626 141.52L41.85 149.363H35.433Z" fill="#353738"/>
<path d="M66.9283 136.033L61.3483 144.682L55.7993 136.033H47.6463L57.6903 150.045V157.733H65.0373V150.045L75.0813 136.033H66.9283Z" fill="#353738"/>
<path d="M87.3239 135.599C80.2869 135.599 73.2189 138.606 73.2189 146.883C73.2189 155.191 80.2869 158.198 87.3239 158.198C94.3609 158.198 101.46 155.191 101.46 146.883C101.46 138.606 94.3609 135.599 87.3239 135.599ZM87.3239 153.238C83.0769 153.238 80.6589 150.851 80.6589 146.883C80.6589 142.946 83.0769 140.559 87.3239 140.559C91.6019 140.559 93.9889 142.946 93.9889 146.883C93.9889 150.851 91.6019 153.238 87.3239 153.238Z" fill="#353738"/>
<path d="M120.702 136.033V148.061C120.702 152.494 118.904 153.238 115.99 153.238C113.045 153.238 111.278 152.494 111.278 148.061V136.033H103.931V148.65C103.931 157.051 109.821 158.198 115.99 158.198C122.159 158.198 128.049 157.051 128.049 148.65V136.033H120.702Z" fill="#353738"/>
<path d="M154.303 136.033H130.526V141.055H138.741V157.733H146.088V141.055H154.303V136.033Z" fill="#353738"/>
<path d="M16.229 174.785C12.509 174.413 9.812 174.289 9.812 172.801C9.812 171.561 11.362 171.127 14.338 171.127C17.159 171.127 18.895 171.778 18.895 173.266H26.366C26.366 169.515 23.638 166.198 14.431 166.198C5.999 166.198 2.496 168.74 2.496 173.142C2.496 177.482 4.852 178.877 11.517 179.9C17.748 180.861 19.856 180.768 19.856 182.225C19.856 183.434 18.12 183.868 15.206 183.868C12.168 183.868 9.688 183.31 9.688 181.295H2C2 185.852 5.627 188.797 14.803 188.797C23.328 188.797 27.761 186.658 27.761 181.45C27.761 175.963 23.018 175.498 16.229 174.785Z" fill="#353738"/>
<path d="M52.4854 166.632H28.7084V171.654H36.9234V188.332H44.2704V171.654H52.4854V166.632Z" fill="#353738"/>
<path d="M73.0048 166.632L67.4248 175.281L61.8758 166.632H53.7228L63.7668 180.644V188.332H71.1138V180.644L81.1578 166.632H73.0048Z" fill="#353738"/>
<path d="M104.122 183.341H90.0475V166.632H82.7005V188.332H104.122V183.341Z" fill="#353738"/>
<path d="M128.317 183.341H113.964V179.714H127.139V174.692H113.964V171.654H128.007V166.632H106.617V188.332H128.317V183.341Z" fill="#353738"/>
<path d="M144.407 174.785C140.687 174.413 137.99 174.289 137.99 172.801C137.99 171.561 139.54 171.127 142.516 171.127C145.337 171.127 147.073 171.778 147.073 173.266H154.544C154.544 169.515 151.816 166.198 142.609 166.198C134.177 166.198 130.674 168.74 130.674 173.142C130.674 177.482 133.03 178.877 139.695 179.9C145.926 180.861 148.034 180.768 148.034 182.225C148.034 183.434 146.298 183.868 143.384 183.868C140.346 183.868 137.866 183.31 137.866 181.295H130.178C130.178 185.852 133.805 188.797 142.981 188.797C151.506 188.797 155.939 186.658 155.939 181.45C155.939 175.963 151.196 175.498 144.407 174.785Z" fill="#353738"/>
<path d="M0 40C0 21.1438 0 11.7157 5.85786 5.85786C11.7157 0 21.1438 0 40 0H43C61.8562 0 71.2843 0 77.1421 5.85786C83 11.7157 83 21.1438 83 40V43C83 61.8562 83 71.2843 77.1421 77.1421C71.2843 83 61.8562 83 43 83H40C21.1438 83 11.7157 83 5.85786 77.1421C0 71.2843 0 61.8562 0 43V40Z" fill="#353738"/>
<path d="M60.6289 12.9688C62.2405 12.9688 63.5469 14.2752 63.5469 15.8867C63.5469 17.4983 62.2405 18.8047 60.6289 18.8047L22.3711 18.8047C20.7595 18.8047 19.4531 17.4983 19.4531 15.8867C19.4531 14.2752 20.7595 12.9687 22.3711 12.9688L60.6289 12.9688Z" fill="white"/>
<path d="M56.4141 25.2891C57.0162 25.2891 57.3173 25.2891 57.5713 25.3091C60.751 25.5593 63.2766 28.0849 63.5269 31.2647C63.5469 31.5187 63.5469 31.8197 63.5469 32.4219C63.5469 33.024 63.5469 33.3251 63.5269 33.5791C63.2766 36.7589 60.751 39.2844 57.5713 39.5347C57.3173 39.5547 57.0162 39.5547 56.4141 39.5547L26.5859 39.5547C25.9838 39.5547 25.6827 39.5547 25.4287 39.5347C22.249 39.2844 19.7234 36.7589 19.4731 33.5791C19.4531 33.3251 19.4531 33.024 19.4531 32.4219C19.4531 31.8197 19.4531 31.5187 19.4731 31.2647C19.7234 28.0849 22.249 25.5593 25.4287 25.3091C25.6827 25.2891 25.9838 25.2891 26.5859 25.2891L56.4141 25.2891Z" fill="#DBE2E4"/>
<path d="M51.875 46.0391C56.7379 46.0391 59.1694 46.0391 60.8739 47.2775C61.4244 47.6774 61.9085 48.1615 62.3085 48.712C63.5469 50.4165 63.5469 52.848 63.5469 57.7109C63.5469 62.5739 63.5469 65.0053 62.3085 66.7099C61.9085 67.2603 61.4244 67.7445 60.8739 68.1444C59.1694 69.3828 56.7379 69.3828 51.875 69.3828L31.125 69.3828C26.2621 69.3828 23.8306 69.3828 22.1261 68.1444C21.5756 67.7445 21.0915 67.2603 20.6915 66.7099C19.4531 65.0053 19.4531 62.5739 19.4531 57.7109C19.4531 52.848 19.4531 50.4165 20.6915 48.712C21.0915 48.1615 21.5756 47.6774 22.1261 47.2775C23.8306 46.0391 26.2621 46.0391 31.125 46.0391L51.875 46.0391Z" fill="#B8C1C5"/>
</svg>
