<svg width="280" height="240" viewBox="0 0 280 240" fill="none" xmlns="http://www.w3.org/2000/svg">
<path d="M22.894 152.134H30.551L20.507 130.434H12.013L2 152.134H9.657L11.021 148.786H21.499L22.894 152.134ZM13.067 143.764L16.26 135.921L19.484 143.764H13.067Z" fill="#353738"/>
<path d="M48.5661 130.434V142.462C48.5661 146.895 46.7681 147.639 43.8541 147.639C40.9091 147.639 39.1421 146.895 39.1421 142.462V130.434H31.7951V143.051C31.7951 151.452 37.6851 152.599 43.8541 152.599C50.0231 152.599 55.9131 151.452 55.9131 143.051V130.434H48.5661Z" fill="#353738"/>
<path d="M82.1679 130.434H58.3909V135.456H66.6059V152.134H73.9529V135.456H82.1679V130.434Z" fill="#353738"/>
<path d="M97.1991 130C90.1621 130 83.0941 133.007 83.0941 141.284C83.0941 149.592 90.1621 152.599 97.1991 152.599C104.236 152.599 111.335 149.592 111.335 141.284C111.335 133.007 104.236 130 97.1991 130ZM97.1991 147.639C92.9521 147.639 90.5341 145.252 90.5341 141.284C90.5341 137.347 92.9521 134.96 97.1991 134.96C101.477 134.96 103.864 137.347 103.864 141.284C103.864 145.252 101.477 147.639 97.1991 147.639Z" fill="#353738"/>
<path d="M23.421 177.742H9.347V161.033H2V182.733H23.421V177.742Z" fill="#353738"/>
<path d="M45.26 182.733H52.917L42.873 161.033H34.379L24.366 182.733H32.023L33.387 179.385H43.865L45.26 182.733ZM35.433 174.363L38.626 166.52L41.85 174.363H35.433Z" fill="#353738"/>
<path d="M66.9283 161.033L61.3483 169.682L55.7993 161.033H47.6463L57.6903 175.045V182.733H65.0373V175.045L75.0813 161.033H66.9283Z" fill="#353738"/>
<path d="M87.3239 160.599C80.2869 160.599 73.2189 163.606 73.2189 171.883C73.2189 180.191 80.2869 183.198 87.3239 183.198C94.3609 183.198 101.46 180.191 101.46 171.883C101.46 163.606 94.3609 160.599 87.3239 160.599ZM87.3239 178.238C83.0769 178.238 80.6589 175.851 80.6589 171.883C80.6589 167.946 83.0769 165.559 87.3239 165.559C91.6019 165.559 93.9889 167.946 93.9889 171.883C93.9889 175.851 91.6019 178.238 87.3239 178.238Z" fill="#353738"/>
<path d="M120.702 161.033V173.061C120.702 177.494 118.904 178.238 115.99 178.238C113.045 178.238 111.278 177.494 111.278 173.061V161.033H103.931V173.65C103.931 182.051 109.821 183.198 115.99 183.198C122.159 183.198 128.049 182.051 128.049 173.65V161.033H120.702Z" fill="#353738"/>
<path d="M154.303 161.033H130.526V166.055H138.741V182.733H146.088V166.055H154.303V161.033Z" fill="#353738"/>
<path d="M16.229 199.785C12.509 199.413 9.812 199.289 9.812 197.801C9.812 196.561 11.362 196.127 14.338 196.127C17.159 196.127 18.895 196.778 18.895 198.266H26.366C26.366 194.515 23.638 191.198 14.431 191.198C5.999 191.198 2.496 193.74 2.496 198.142C2.496 202.482 4.852 203.877 11.517 204.9C17.748 205.861 19.856 205.768 19.856 207.225C19.856 208.434 18.12 208.868 15.206 208.868C12.168 208.868 9.688 208.31 9.688 206.295H2C2 210.852 5.627 213.797 14.803 213.797C23.328 213.797 27.761 211.658 27.761 206.45C27.761 200.963 23.018 200.498 16.229 199.785Z" fill="#353738"/>
<path d="M52.4854 191.632H28.7084V196.654H36.9234V213.332H44.2704V196.654H52.4854V191.632Z" fill="#353738"/>
<path d="M73.0048 191.632L67.4248 200.281L61.8758 191.632H53.7228L63.7668 205.644V213.332H71.1138V205.644L81.1578 191.632H73.0048Z" fill="#353738"/>
<path d="M104.122 208.341H90.0475V191.632H82.7005V213.332H104.122V208.341Z" fill="#353738"/>
<path d="M128.317 208.341H113.964V204.714H127.139V199.692H113.964V196.654H128.007V191.632H106.617V213.332H128.317V208.341Z" fill="#353738"/>
<path d="M144.407 199.785C140.687 199.413 137.99 199.289 137.99 197.801C137.99 196.561 139.54 196.127 142.516 196.127C145.337 196.127 147.073 196.778 147.073 198.266H154.544C154.544 194.515 151.816 191.198 142.609 191.198C134.177 191.198 130.674 193.74 130.674 198.142C130.674 202.482 133.03 203.877 139.695 204.9C145.926 205.861 148.034 205.768 148.034 207.225C148.034 208.434 146.298 208.868 143.384 208.868C140.346 208.868 137.866 208.31 137.866 206.295H130.178C130.178 210.852 133.805 213.797 142.981 213.797C151.506 213.797 155.939 211.658 155.939 206.45C155.939 200.963 151.196 200.498 144.407 199.785Z" fill="#353738"/>
<path d="M0 65C0 46.1438 0 36.7157 5.85786 30.8579C11.7157 25 21.1438 25 40 25H43C61.8562 25 71.2843 25 77.1421 30.8579C83 36.7157 83 46.1438 83 65V68C83 86.8562 83 96.2843 77.1421 102.142C71.2843 108 61.8562 108 43 108H40C21.1438 108 11.7157 108 5.85786 102.142C0 96.2843 0 86.8562 0 68V65Z" fill="#353738"/>
<path d="M60.6289 37.9688C62.2405 37.9688 63.5469 39.2752 63.5469 40.8867C63.5469 42.4983 62.2405 43.8047 60.6289 43.8047L22.3711 43.8047C20.7595 43.8047 19.4531 42.4983 19.4531 40.8867C19.4531 39.2752 20.7595 37.9687 22.3711 37.9688L60.6289 37.9688Z" fill="white"/>
<path d="M56.4141 50.2891C57.0162 50.2891 57.3173 50.2891 57.5713 50.3091C60.751 50.5593 63.2766 53.0849 63.5269 56.2647C63.5469 56.5187 63.5469 56.8197 63.5469 57.4219C63.5469 58.024 63.5469 58.3251 63.5269 58.5791C63.2766 61.7589 60.751 64.2844 57.5713 64.5347C57.3173 64.5547 57.0162 64.5547 56.4141 64.5547L26.5859 64.5547C25.9838 64.5547 25.6827 64.5547 25.4287 64.5347C22.249 64.2844 19.7234 61.7589 19.4731 58.5791C19.4531 58.3251 19.4531 58.024 19.4531 57.4219C19.4531 56.8197 19.4531 56.5187 19.4731 56.2647C19.7234 53.0849 22.249 50.5593 25.4287 50.3091C25.6827 50.2891 25.9838 50.2891 26.5859 50.2891L56.4141 50.2891Z" fill="#DBE2E4"/>
<path d="M51.875 71.0391C56.7379 71.0391 59.1694 71.0391 60.8739 72.2775C61.4244 72.6774 61.9085 73.1615 62.3085 73.712C63.5469 75.4165 63.5469 77.848 63.5469 82.7109C63.5469 87.5739 63.5469 90.0053 62.3085 91.7099C61.9085 92.2603 61.4244 92.7445 60.8739 93.1444C59.1694 94.3828 56.7379 94.3828 51.875 94.3828L31.125 94.3828C26.2621 94.3828 23.8306 94.3828 22.1261 93.1444C21.5756 92.7444 21.0915 92.2603 20.6915 91.7099C19.4531 90.0053 19.4531 87.5739 19.4531 82.7109C19.4531 77.848 19.4531 75.4165 20.6915 73.712C21.0915 73.1615 21.5756 72.6774 22.1261 72.2775C23.8306 71.0391 26.2621 71.0391 31.125 71.0391L51.875 71.0391Z" fill="#B8C1C5"/>
</svg>
